PathFileType	4	(X/Y/Z)	/home/abdul/Desktop/myosuite/custom_workspace/IK/output/S11_12_1.trc
DataRate	CameraRate	NumFrames	NumMarkers	Units	OrigDataRate	OrigDataStartFrame	OrigNumFrames
200.0	200.0	56	3	mm	200.0	774	1546
Frame#	Time	V_Shoulder			V_Elbow			V_Wrist		
		X1	Y1	Z1	X2	Y2	Z2	X3	Y3	Z3

774	3.865	-103.09544119667942	667.5877340637901	305.0088397933248	-313.7850316384753	447.1500813150175	163.17601287714967	-128.12051645002322	393.4895291886214	335.7402465578135
775	3.87	-103.08827727927134	667.5212350223848	305.0064810331505	-313.76125026152465	447.09772753014784	163.1252206807169	-128.08689212905963	393.46265688461085	335.71431317294014
776	3.875	-103.08277475987022	667.4531486950797	305.00194016487944	-313.73716045086456	447.0469719376059	163.06445202318218	-128.05681955638636	393.42833792179795	335.6805325581671
777	3.88	-103.07898066677039	667.3834521039677	304.9951456691228	-313.7127079476412	446.99792476208125	162.993261142458	-128.0305678903365	393.385978760023	335.6384942396835
778	3.885	-103.07694161057366	667.3121182855319	304.9860287037182	-313.6878368658813	446.9506894849246	162.91120804257653	-128.0084098510785	393.33496643335354	335.58778651760326
779	3.89	-103.076703678324	667.2391163550386	304.97452333044197	-313.6624899044984	446.90536258658506	162.81785988109317	-127.9906211441833	393.2746697222075	335.52799734592645
780	3.895	-103.07831232602871	667.1644115809528	304.96056673628397	-313.6366085635312	446.86203330226067	162.71279235797078	-127.9774798490727	393.20444041854205	335.45871522032644
781	3.9	-103.08181226993634	667.0879654690472	304.94409944846825	-313.61013336380574	446.8207833914586	162.59559110100366	-127.96926577353872	393.1236146817873	335.3795300711505
782	3.905	-103.0872473769518	667.0097358558468	304.92506554240873	-313.5830040691708	446.78168692214973	162.4658530427104	-127.96625977572685	393.0315144827705	335.2900341589476
783	3.91	-103.09466055457348	666.9296770110243	304.9034128418052	-313.55515991041966	446.7448100701881	162.3231877835107	-127.9687430551771	392.9274491324504	335.1898229697655
784	3.915	-103.10409364074364	666.8477397483408	304.87909311009435	-313.52653980997513	446.7102109346438	162.16721893590562	-127.97699641471803	392.8107168918459	335.0784961074004
785	3.92	-103.11558729400541	666.7638715446982	304.8520622324919	-313.4970826063829	446.67793936967905	161.99758544430532	-127.99129949520588	392.680606659119	334.9556581797259
786	3.925	-103.12918088436267	666.6780166668524	304.8222803878818	-313.4667272776278	446.6480368335735	161.81394287509377	-128.01192998529433	392.5363997293489	334.8209196761835
787	3.93	-103.14491238523833	666.5901163053163	304.78971220983243	-313.43541316226526	446.6205362554708	161.61596467149062	-128.03916280860832	392.3773716221197	334.6738978334809
788	3.935	-103.1628182669254	666.5001087149611	304.7543269360464	-313.403080177335	446.59546192039534	161.40334336776226	-128.07326929087674	392.202793971642	334.51421748651717
789	3.94	-103.18293339192303	666.4079293618111	304.71609854558284	-313.36966903201176	446.5728293730434	161.17579175735543	-128.11451630975057	392.0119364737353	334.34151190154097
790	3.945	-103.20529091254332	666.3135110755137	304.6750058832201	-313.33512143593265	446.55264534081994	160.93304400957206	-128.16316543019747	391.8040688836243	334.15542358854356
791	3.95	-103.22992217117063	666.2167842069522	304.63103277036777	-313.29938030113715	446.5349076765467	160.67485672947998	-128.21947202851393	391.57846305814326	333.9556050898997
792	3.955	-103.25685660354507	666.1176767904595	304.5841681019728	-313.2623899365533	446.5196053212188	160.40100995585675	-128.28368440813782	391.33439503560584	333.741719742291
793	3.96	-103.2861216454343	666.0161147100852	304.5344059289067	-313.22409623397056	446.50671828713985	160.11130809209862	-128.35604291056833	391.0711471462853	333.51344240898607
794	3.965	-103.31774264304535	665.9120218693581	304.4817455253664	-313.1844468444517	446.49621766170674	159.8055807651905	-128.4367790248134	390.78801014615834	333.2704601796013
795	3.97	-103.35174276751673	665.8053203639887	304.4261914408664	-313.1433913441537	446.48806563206074	159.48368360802777	-128.52611449887814	390.4842853663086	333.01247303453613
796	3.975	-103.38814293381654	665.6959306569479	304.36775353645186	-313.10088138855366	446.4822155307566	159.14549896060726	-128.62426045688738	390.15928687015355	332.7391944713595
797	3.98	-103.42696172435672	665.5837717553633	304.306447004811	-313.05687085410887	446.4786119025392	158.79093648586252	-128.73141652549506	389.812343610463	332.4503520905224
798	3.985	-103.46821531761746	665.4687613886764	304.2422923740201	-313.01131596641744	446.47719059224585	158.41993369620562	-128.84776997327407	389.44280157797533	332.14568813789185
799	3.99	-103.51191742205712	665.3508161875051	304.17531549471136	-312.9641754139946	446.4778788537832	158.03245638715714	-128.97349486680298	389.0500259332912	331.82496000172915
800	3.995	-103.55807921556367	665.2298518626668	304.10554751050887	-312.91541044683333	446.4805954800537	157.62849897479435	-129.10875124716625	388.6334031136397	331.4879406618918
801	4.0	-103.60670929068351	665.1057833838269	304.0330248116382	-312.8649849589767	446.48525095362857	157.2080847341235	-129.25368433056587	388.19234290606425	331.1344190892013
802	4.005	-103.6578136058417	664.9785251572389	303.9577889716753	-312.8128655544007	446.4917476178879	156.77126593588653	-129.40842373670236	387.726280478573	330.76420059310345
803	4.01	-103.7113954427444	664.8479912020703	303.8798866674611	-312.75902159557796	446.499979868267	156.31812387974134	-129.5730827485211	387.2346783608356	330.3771071159489
804	4.015	-103.76745537013203	664.714095324807	303.7993695822701	-312.70342523417605	446.50983436316994	155.84876882220843	-129.74775760683832	386.71702836609245	329.9729774724358
805	4.02	-103.82599121402563	664.5767512912557	303.7162942923859	-312.6460514234302	446.5211902540254	155.36333979825125	-129.9325268432564	386.17285344606904	329.551667532988
806	4.025	-103.88699803458543	664.4358729956779	303.6307221372963	-312.58687791182535	446.53391943388357	154.8620043358507	-130.1274506546548	385.60170947085896	329.11305035008536
807	4.03	-103.95046810967335	664.2913746266061	303.5427190737876	-312.5258852178187	446.54788680386724	154.3449580634454	-130.3325703223986	385.0031869259575	328.6570162268225
808	4.035	-104.01639092518634	664.1431708289193	303.4523555142777	-312.46305658544117	446.5629505567124	153.81242421063294	-130.54790767924194	384.3769125188888	328.18347272723923
809	4.04	-104.08475317220011	663.9911768617712	303.35970614979107	-312.3983779207211	446.57896247655424	153.2646530030623	-130.77346462672278	383.72255068817515	327.69234462824664
810	4.045	-104.15553875093597	663.8353087519912	303.2648497580432	-312.3318377089871	446.5957682540379	152.70192095298862	-131.00922270564305	383.03980500774406	327.1835738132613
811	4.05	-104.22872878153736	663.6754834426027	303.16786899715663	-312.26342691322105	446.6132078157615	152.12453004750768	-131.25514272201357	382.3284194802594	326.6571191079547
812	4.055	-104.30430162161421	663.5116189361294	303.06885018559825	-312.19313885374817	446.6311156669848	151.53280683703284	-131.51116443060982	381.5881797132934	326.112956058825
813	4.06	-104.38223289048837	663.3436344323826	302.96788306897815	-312.12096906967173	446.649321246475	150.92710142711834	-131.7772062780392	380.8189139727234	325.55107665560405
814	4.065	-104.462495500045	663.1714504604562	302.8650605744124	-312.0469151625763	446.6676492922969	150.30778637726894	-132.05316520696243	380.0204941082417	324.9714889988128
815	4.07	-104.54505969206993	662.9949890046805	302.7604785532021	-311.97097662314434	446.6859202172991	149.67525551089727	-132.3389165228431	379.1928363464033	324.3742169140846
816	4.075	-104.62989308192682	662.8141736243132	302.65423551263564	-311.8931546414472	446.7039504929978	149.02992264109935	-132.63431382432012	378.33590194720375	323.75929951517276
817	4.08	-104.71696070840274	662.6289295667774	302.5464323377678	-311.81345190178894	446.72155304051483	148.37222021740664	-132.93918899801534	377.4496977207723	323.1267907178521
818	4.085	-104.80622508952683	662.4391838742871	302.4371720040778	-311.7318723630923	446.7385376271901	147.70259789914022	-133.2533522782963	376.5342764013871	322.476758707209
819	4.09	-104.89764628414316	662.2448654837233	302.3265592819503	-311.64842102592763	446.75471126745924	147.02152106143035	-133.57659237222143	375.5897368766522	321.8092853610856
820	4.095	-104.99118195899628	662.045905319659	302.21470043396357	-311.56310368738946	446.7698786265639	146.32946924037526	-133.90867664960035	374.6162242703347	321.1244656327051
821	4.1	-105.08678746106686	661.8422363804593	302.10170290600416	-311.4759266851239	446.78384242565255	145.62693452418753	-134.24935139780712	373.6139298780241	320.4224068957486
822	4.105	-105.18441589487462	661.6337938174103	301.9876750132633	-311.38689663190655	446.7964038468193	144.91441989751672	-134.59834214069267	372.58309095545144	319.703228255378
823	4.11	-105.28401820444698	661.4205150068555	301.8727256221934	-311.296020142252	446.80736293663927	144.19243754643486	-134.9553540206556	371.5239903599856	318.9670598289071
824	4.115	-105.38554325963429	661.202339615355	301.7569638295318	-311.2033035526213	446.8165190067668	143.46150713183	-135.3200722426494	370.4369560465002	318.2140420000052
825	4.12	-105.48893794643674	660.9792096579005	301.6404986395187	-311.1087526368585	446.82367103018987	142.72215403916516	-135.69216257863184	369.3223604194805	317.44432465047555
826	4.125	-105.59414726099381	660.7510695492481	301.5234386404472	-311.0123723185533	446.82861803176377	141.974907612727	-136.07127193069942	368.1806195439025	316.6580663737875
827	4.13	-105.70111440687477	660.5178661484601	301.4058916817013	-310.9141663820761	446.8311594716896	141.22029938260638	-136.45702895089903	367.0121922180689	315.85543367464425
828	4.135	-105.80978089529704	660.2795487967652	301.2879645524386	-310.8141371840788	446.8310956206525	140.4588612927223	-136.8490447154711	365.8175789122222	315.03660015894945
829	4.14	-105.92008664789142	660.0360693488718	301.1697626630774	-310.71228536728137	446.828227925396	139.69112393822064	-137.24691345105572	364.5973205773661	314.2017457185849
